<?xml version="1.0" encoding="UTF-8" standalone="no"?>
<svg
   xmlns:dc="http://purl.org/dc/elements/1.1/"
   xmlns:cc="http://creativecommons.org/ns#"
   xmlns:rdf="http://www.w3.org/1999/02/22-rdf-syntax-ns#"
   xmlns:svg="http://www.w3.org/2000/svg"
   xmlns="http://www.w3.org/2000/svg"
   xmlns:sodipodi="http://sodipodi.sourceforge.net/DTD/sodipodi-0.dtd"
   xmlns:inkscape="http://www.inkscape.org/namespaces/inkscape"
   inkscape:version="1.0 (4035a4fb49, 2020-05-01)"
   sodipodi:docname="logout.svg"
   xml:space="preserve"
   style="enable-background:new 0 0 512 512;"
   viewBox="0 0 512 512"
   y="0px"
   x="0px"
   id="Layer_1"
   version="1.1"><metadata
   id="metadata13"><rdf:RDF><cc:Work
       rdf:about=""><dc:format>image/svg+xml</dc:format><dc:type
         rdf:resource="http://purl.org/dc/dcmitype/StillImage" /></cc:Work></rdf:RDF></metadata><defs
   id="defs11" /><sodipodi:namedview
   inkscape:current-layer="Layer_1"
   inkscape:window-maximized="1"
   inkscape:window-y="165"
   inkscape:window-x="-8"
   inkscape:cy="379.83826"
   inkscape:cx="229.17246"
   inkscape:zoom="0.70051971"
   showgrid="false"
   id="namedview9"
   inkscape:window-height="837"
   inkscape:window-width="1440"
   inkscape:pageshadow="2"
   inkscape:pageopacity="0"
   guidetolerance="10"
   gridtolerance="10"
   objecttolerance="10"
   borderopacity="1"
   bordercolor="#666666"
   pagecolor="#ffffff" />
<g
   style="fill:#0994f6;fill-opacity:1;stroke:none;stroke-opacity:1"
   id="g6">
	<path
   style="fill:#0994f6;fill-opacity:1;stroke:none;stroke-opacity:1"
   id="path2"
   d="M332.8,153.6v-51.2c0-42.4-34.4-76.8-76.8-76.8H76.8C34.4,25.6,0,60,0,102.4v307.2c0,42.4,34.4,76.8,76.8,76.8H256   c42.4,0,76.8-34.4,76.8-76.8v-51.2c0-14.1-11.5-25.6-25.6-25.6s-25.6,11.5-25.6,25.6v51.2c0,14.1-11.5,25.6-25.6,25.6H76.8   c-14.1,0-25.6-11.5-25.6-25.6V102.4c0-14.1,11.5-25.6,25.6-25.6H256c14.1,0,25.6,11.5,25.6,25.6v51.2c0,14.1,11.5,25.6,25.6,25.6   S332.8,167.7,332.8,153.6z" />
	<path
   style="fill:#0994f6;fill-opacity:1;stroke:none;stroke-opacity:1"
   id="path4"
   d="M128,281.6h358.4c10.4,0,19.7-6.2,23.7-15.8c4-9.6,1.8-20.6-5.5-27.9l-76.8-76.8c-10-10-26.2-10-36.2,0   c-10,10-10,26.2,0,36.2l33.1,33.1l-296.6,0c-14.1,0-25.6,11.5-25.6,25.6C102.4,270.1,113.9,281.6,128,281.6L128,281.6z    M427.7,350.9l76.8-76.8c10-10,10-26.2,0-36.2s-26.2-10-36.2,0l-76.8,76.8c-10,10-10,26.2,0,36.2   C401.5,360.9,417.7,360.9,427.7,350.9z" />
</g>
<path
   id="path15"
   d="M 68.668235,485.68051 C 52.173404,483.91608 36.124962,476.28102 23.751367,464.31127 12.010276,452.95338 4.7244798,439.35285 1.3801953,422.55059 0.35927203,417.42129 0.30117647,408.45403 0.30117647,256 0.30117647,103.54597 0.35927203,94.578706 1.3801953,89.449412 4.7244798,72.647151 12.010276,59.046618 23.751367,47.688728 34.285342,37.498556 45.623235,31.336115 60.837647,27.531364 65.933734,26.256959 66.409207,26.25 162.63529,26.041406 c 102.17683,-0.221493 102.73907,-0.208689 113.14636,2.576483 25.43522,6.806913 46.64772,27.678283 53.7278,52.863768 2.68178,9.539739 2.9829,14.132253 2.9711,45.313633 -0.007,17.70463 -0.25486,30.57231 -0.62015,32.15682 -2.94282,12.76482 -15.93787,21.68551 -28.46428,19.53983 -10.11253,-1.7322 -18.57998,-9.6651 -20.85652,-19.53983 -0.36277,-1.57357 -0.61493,-14.01449 -0.6237,-30.77187 -0.01,-18.21424 -0.25014,-29.255551 -0.68255,-31.322357 -1.97551,-9.442226 -10.20658,-17.669351 -19.69123,-19.681787 -2.28407,-0.484629 -29.44733,-0.677272 -95.49698,-0.677272 -101.874036,0 -96.017858,-0.216095 -102.715011,3.790211 -4.19175,2.507552 -7.619938,6.387939 -9.95542,11.268612 l -1.873533,3.915294 V 256 416.52706 l 1.873533,3.91529 c 2.335482,4.88068 5.76367,8.76106 9.95542,11.26862 6.697153,4.0063 0.840975,3.79021 102.715011,3.79021 65.24917,0 93.24059,-0.19576 95.49698,-0.66783 9.44222,-1.97551 17.66935,-10.20658 19.68178,-19.69123 0.44489,-2.09676 0.68233,-12.84412 0.692,-31.32236 0.009,-16.75738 0.26093,-29.1983 0.6237,-30.77187 2.27654,-9.87473 10.74399,-17.80763 20.85652,-19.53983 12.59493,-2.15742 25.50536,6.70519 28.46428,19.53983 0.36529,1.58451 0.61344,14.45219 0.62015,32.15682 0.0118,31.18138 -0.28932,35.77389 -2.9711,45.31363 -6.9446,24.70356 -27.88755,45.64651 -52.59111,52.59111 -10.79882,3.03574 -9.00028,2.9889 -110.9701,2.88943 -52.34448,-0.0511 -96.120475,-0.19434 -97.280005,-0.31837 z"
   style="fill:none;stroke:#000000;stroke-width:0.539556;stroke-dasharray:4.31645, 4.31645" /><path
   id="path17"
   d="m 69.270588,485.78994 c -0.496941,-0.1017 -2.93647,-0.51036 -5.421176,-0.90814 C 49.418987,482.57164 35.117329,475.27597 23.988275,464.54754 17.882618,458.66167 15.000126,455.06848 10.865859,448.1897 4.7728208,438.05183 1.5244934,427.10767 0.57417373,413.51529 0.1495611,407.44208 0.01345084,353.53222 0.15899365,249.07294 0.35636778,107.41324 0.46361576,93.237905 1.371379,88.827784 4.5003274,73.626655 11.236169,60.615439 21.534476,49.879961 32.716319,38.223439 44.724732,31.480048 61.741176,27.301664 c 3.880141,-0.952768 11.976102,-1.051485 101.496474,-1.237582 107.02633,-0.22249 103.71116,-0.320933 115.68913,3.43535 24.672,7.737123 44.1021,28.049953 50.86206,53.172795 2.52038,9.366778 2.8044,14.44924 2.60036,46.532483 -0.18555,29.17444 -0.23196,30.2161 -1.48193,33.26144 -2.8153,6.85905 -8.86464,12.73885 -15.48172,15.04784 -4.58292,1.59917 -12.9052,1.42439 -17.26084,-0.36251 -6.61978,-2.71577 -11.77715,-7.9826 -14.80434,-15.11854 -1.06656,-2.51419 -1.17337,-4.98003 -1.47414,-34.03294 -0.28905,-27.92024 -0.43881,-31.614621 -1.37881,-34.013202 -3.45027,-8.803953 -10.4433,-15.002519 -18.9653,-16.810702 -2.28407,-0.484629 -29.44733,-0.677272 -95.49698,-0.677272 -101.874036,0 -96.017858,-0.216095 -102.715011,3.790211 -4.19175,2.507552 -7.619938,6.387939 -9.95542,11.268612 l -1.873533,3.915294 V 256 416.52706 l 1.944335,4.10506 c 3.318012,7.0053 10.13542,12.48644 17.699467,14.23024 1.719676,0.39645 34.958502,0.61451 95.128472,0.62409 101.03045,0.0161 95.86311,0.18838 102.48798,-3.41732 3.64903,-1.98605 8.33942,-6.89519 10.29302,-10.77304 2.66416,-5.28833 2.84673,-7.69332 2.84673,-37.50036 0,-23.50168 0.15449,-28.74767 0.93485,-31.74447 3.23517,-12.42392 15.83246,-20.65616 28.33239,-18.51502 10.04813,1.72118 18.40787,9.60405 20.69198,19.51165 0.77829,3.37595 0.80861,60.07566 0.0353,66.02871 -2.74794,21.15419 -14.37299,40.55675 -31.54418,52.6482 -8.76935,6.17512 -15.96234,9.46888 -27.18446,12.44808 l -6.02353,1.5991 -98.4847,0.10143 c -54.16659,0.0558 -98.891297,0.0183 -99.388238,-0.0835 z"
   style="fill:none;stroke:#000000;stroke-width:0.539556;stroke-dasharray:4.31645, 4.31645" /><path
   id="path19"
   d="m 69.270588,485.78205 c -0.496941,-0.0974 -2.93647,-0.49302 -5.421176,-0.87925 C 37.145224,480.75188 13.091602,460.11149 4.2774444,433.78413 0.06453356,421.20043 0.39961618,435.05604 0.15273803,263.22824 -0.07752843,102.96218 0.03929263,93.372386 2.3283809,84.630588 6.2555208,69.63324 12.119639,59.433921 23.132382,48.446692 32.502276,39.098507 41.395816,33.539007 52.978218,29.789564 c 11.573122,-3.74644 3.408331,-3.470942 109.958252,-3.710231 107.36424,-0.241118 103.97677,-0.340902 115.99876,3.41696 6.74984,2.109878 15.62237,6.509738 21.39667,10.610534 5.42356,3.851705 14.25667,12.710479 17.92543,17.977497 4.47303,6.42166 7.91352,13.253004 10.31311,20.47741 3.67809,11.073558 4.0042,15.370949 3.80383,50.125266 -0.17136,29.72216 -0.21509,30.72907 -1.467,33.77915 -3.02957,7.38109 -9.21062,13.06159 -16.6818,15.33089 -10.14431,3.08124 -21.89841,-1.18034 -27.80675,-10.08165 -4.30933,-6.49227 -4.14363,-5.03032 -4.50149,-39.71539 l -0.32316,-31.322353 -1.69351,-4.00581 C 276.63833,84.955412 268.97033,78.614004 261.12,77.140388 256.91899,76.351801 73.820889,76.485724 70.776471,77.279611 c -3.688039,0.961723 -4.289404,1.21898 -7.63392,3.265719 -4.107289,2.51353 -7.807362,6.746448 -10.015064,11.457329 l -1.626311,3.470282 V 256 416.52706 l 2.052372,4.13177 c 3.54404,7.13475 10.571868,12.69468 18.030509,14.26449 1.783664,0.3754 36.944093,0.53346 96.472413,0.43368 l 93.66588,-0.157 3.5012,-1.41267 c 4.44022,-1.79154 9.86413,-6.2861 12.4513,-10.31784 4.03234,-6.28387 4.1814,-7.67881 4.21453,-39.44002 0.0246,-23.58655 0.18815,-29.06533 0.95559,-32.01254 4.00209,-15.36914 21.23732,-23.20892 35.58789,-16.18785 6.33694,3.10038 11.78258,10.0836 13.42754,17.21881 0.81126,3.51896 0.83074,59.56761 0.0229,66.00998 -2.72413,21.72534 -14.91435,41.52289 -33.11628,53.78257 -7.98619,5.379 -14.04558,8.14215 -23.54884,10.73857 -9.12328,2.4926 -10.45133,2.52233 -109.46416,2.44994 -52.56898,-0.0384 -95.986541,-0.14953 -96.483482,-0.2469 z"
   style="fill:none;stroke:#000000;stroke-width:0.539556;stroke-dasharray:4.31645, 4.31645" /><path
   id="path21"
   d="M 63.548235,484.91968 C 48.713798,482.04561 36.652236,476.17949 26.142848,466.72762 10.478435,452.63944 2.1173674,435.60447 0.61657937,414.72 -0.20612566,403.27151 -0.20840225,108.7501 0.61412611,97.341922 1.2614765,88.3634 2.0585615,84.45161 4.8250386,76.676361 12.632834,54.732369 30.662285,37.120885 52.839846,29.774656 64.304724,25.976961 56.40155,26.243637 163.23765,26.04951 c 103.16727,-0.187461 104.37069,-0.159946 113.36456,2.591985 13.35533,4.086444 23.73274,10.267091 33.31755,19.843506 11.7281,11.71783 19.27913,26.515301 21.67691,42.479431 1.15199,7.669808 1.31987,62.764088 0.20812,68.299888 -0.9663,4.81156 -4.43535,10.3112 -8.68271,13.76508 -9.30634,7.56775 -21.69167,7.74422 -31.24223,0.44516 -4.52226,-3.45616 -8.49257,-9.597 -9.34472,-14.45338 -0.31972,-1.82212 -0.67281,-16.59483 -0.78464,-32.82824 l -0.20333,-29.515293 -1.58712,-3.762911 C 276.6603,85.091398 269.01717,78.708034 261.12,77.179976 255.91239,76.172333 73.831418,76.541052 69.678869,77.56765 c -3.699128,0.914503 -9.578171,4.528904 -11.530999,7.089196 -0.829656,1.087734 -1.930546,2.399779 -2.446423,2.915658 -0.515877,0.515873 -1.661685,2.504517 -2.546242,4.419199 L 51.546922,95.472941 51.535752,256 l -0.01117,160.52706 1.997088,4.0414 c 2.653221,5.36919 7.057764,9.66846 12.737152,12.43272 L 70.776471,435.2 h 95.171769 c 89.72174,0 95.33971,-0.0614 98.10472,-1.07134 4.01709,-1.46735 5.0698,-2.07423 8.27724,-4.77175 3.90383,-3.2832 7.1358,-8.2467 8.37478,-12.86153 0.9287,-3.45919 1.06732,-7.40019 1.15549,-32.85294 0.0925,-26.71828 0.18891,-29.20948 1.26445,-32.69169 3.11367,-10.08087 13.43336,-17.84957 23.7108,-17.84957 3.67113,0 9.07594,1.31017 12.39956,3.00575 3.75388,1.91509 8.54011,7.09378 10.86128,11.75189 l 2.10109,4.21647 0.19074,30.41883 c 0.1171,18.67417 -0.0532,32.51686 -0.44117,35.85279 -3.27425,28.15629 -22.27354,52.6294 -48.65261,62.66974 -5.10398,1.94266 -11.21245,3.5399 -16.89182,4.41687 -3.08467,0.47631 -32.51262,0.65261 -100.89412,0.60446 -89.164946,-0.0628 -96.953364,-0.14822 -101.960435,-1.1183 z"
   style="fill:#0994f6;stroke:none;stroke-width:0.539556;stroke-dasharray:4.31645, 4.31644999999999968;fill-opacity:1;stroke-opacity:1" /><path
   id="path23"
   d="m 401.33989,356.59317 c -11.30727,-4.02025 -18.56639,-16.00198 -16.61096,-27.41767 1.38779,-8.10188 2.20925,-9.18699 21.89007,-28.91549 9.92191,-9.94594 18.03982,-18.281 18.03982,-18.52235 0,-0.24136 -67.30117,-0.43884 -149.55815,-0.43884 -161.08861,0 -152.63395,0.15767 -158.7458,-2.96036 -4.29897,-2.19317 -8.37351,-6.48633 -10.78295,-11.36149 -2.18965,-4.43047 -2.26839,-4.81041 -2.26839,-10.94573 0,-5.87151 0.1428,-6.65436 1.87353,-10.27124 2.33548,-4.88067 5.76367,-8.76106 9.95542,-11.26861 6.81096,-4.07439 -5.18269,-3.79021 159.96819,-3.79021 82.25698,0 149.55815,-0.1935 149.55815,-0.43001 0,-0.2365 -8.09189,-8.57156 -17.98197,-18.52235 -14.51878,-14.6079 -18.2945,-18.74269 -19.60471,-21.46911 -6.08017,-12.6523 -1.03233,-27.29152 11.55403,-33.50779 4.47421,-2.20976 4.76528,-2.26839 11.26119,-2.26839 11.29992,0 7.68182,-2.94523 56.39029,45.90313 45.51458,45.6453 43.57615,43.41744 45.09538,51.82863 0.50507,2.79634 0.50507,4.73308 0,7.52942 -1.51732,8.40062 0.33335,6.26709 -44.192,50.94616 -22.55898,22.63686 -42.17291,41.96597 -43.58652,42.95359 -5.87734,4.10623 -15.4132,5.36115 -22.25462,2.92871 z"
   style="fill:#0893f7;stroke:#000000;stroke-width:0.539556;stroke-dasharray:4.31645, 4.31644999999999968;fill-opacity:0" /><path
   id="path848"
   d="m 405.93088,357.66888 c -7.82812,-1.00231 -15.35483,-6.58342 -19.07818,-14.1466 -1.90387,-3.86732 -2.00418,-4.40394 -2.00418,-10.72228 0,-6.34673 0.0941,-6.84366 2.05617,-10.85502 1.82999,-3.74141 4.04531,-6.20804 20.14009,-22.42498 l 18.08394,-18.22118 -149.94716,-0.0147 c -98.91958,-0.01 -150.84666,-0.2221 -152.59041,-0.6241 -12.71255,-2.93071 -21.6121,-15.89809 -19.43225,-28.31439 1.79362,-10.21635 9.72089,-18.76516 19.49056,-21.01872 1.66782,-0.38471 55.74597,-0.60149 152.42024,-0.61099 82.40941,-0.008 149.83529,-0.14336 149.83529,-0.30057 0,-0.15722 -7.75955,-8.08569 -17.24346,-17.61883 -9.4839,-9.53313 -17.90785,-18.19943 -18.71988,-19.25843 -2.35577,-3.07225 -4.36709,-9.55574 -4.3816,-14.12403 -0.0491,-15.46011 13.01705,-26.90414 28.67924,-25.11886 8.18507,0.93299 7.26255,0.13565 52.74868,45.59101 39.18082,39.15433 41.48984,41.58065 43.36941,45.57263 1.85169,3.93278 1.98526,4.64202 1.98526,10.54118 0,5.94075 -0.12291,6.58068 -2.02476,10.54118 -1.90066,3.95803 -4.55883,6.75296 -43.36941,45.60061 -38.21203,38.24854 -41.64165,41.52228 -45.26446,43.20724 -4.63067,2.15372 -9.75607,2.95966 -14.75313,2.31985 z"
   style="fill:#0893f7;fill-opacity:0;stroke:#000000;stroke-width:0.539556;stroke-dasharray:4.31645, 4.31645" /><path
   id="path850"
   d="m 406.07339,357.73673 c -7.65571,-0.84683 -15.49328,-6.64302 -19.22069,-14.21445 -1.90387,-3.86732 -2.00418,-4.40394 -2.00418,-10.72228 0,-6.33974 0.096,-6.84808 2.04941,-10.85502 1.82815,-3.74997 4.0033,-6.17092 20.14811,-22.42498 l 18.0987,-18.22118 -149.95517,-0.0147 c -98.92498,-0.01 -150.85467,-0.2221 -152.59842,-0.6241 -12.71314,-2.93085 -21.74436,-16.12772 -19.45639,-28.43065 1.89314,-10.17986 9.81496,-18.66503 19.5147,-20.90246 1.66782,-0.38471 55.74597,-0.60149 152.42024,-0.61099 82.40941,-0.008 149.83529,-0.11259 149.83529,-0.2322 0,-0.11961 -7.84109,-8.09203 -17.42466,-17.71649 -9.58357,-9.62446 -18.11333,-18.53965 -18.95502,-19.81153 -3.97881,-6.01238 -5.10008,-14.82323 -2.75416,-21.64179 4.02613,-11.70214 14.97687,-18.44091 27.62761,-17.00125 7.91657,0.9009 6.76711,-0.0956 52.28957,45.33082 39.5182,39.4348 41.79007,41.81825 43.67059,45.81536 1.85052,3.93334 1.98372,4.64202 1.98372,10.55385 0,5.96324 -0.11985,6.58554 -2.0302,10.54117 -1.89899,3.93213 -4.70183,6.87834 -43.36941,45.58795 -38.20998,38.25151 -41.63593,41.52215 -45.25902,43.20724 -4.51436,2.09963 -9.64092,2.93741 -14.61062,2.3877 z"
   style="fill:#0893f7;fill-opacity:0;stroke:#000000;stroke-width:0.539556;stroke-dasharray:4.31645, 4.31645" /><path
   id="path852"
   d="m 406.14426,357.74418 c -7.83506,-0.86757 -15.80592,-6.72849 -19.36262,-14.2372 -1.81212,-3.82565 -1.93312,-4.49662 -1.93312,-10.71965 0,-6.32533 0.0967,-6.83688 2.04941,-10.84235 1.82815,-3.74997 4.0033,-6.17092 20.14811,-22.42498 l 18.0987,-18.22118 -149.95517,-0.0147 c -98.92498,-0.01 -150.85467,-0.2221 -152.59842,-0.6241 -12.99445,-2.9957 -21.97807,-16.48279 -19.36456,-29.07198 1.99586,-9.61401 9.3439,-17.60083 18.35172,-19.94707 3.15809,-0.82258 20.48998,-0.92953 153.44346,-0.94683 82.43577,-0.0107 149.88322,-0.11392 149.88322,-0.22932 0,-0.1154 -7.69317,-7.92831 -17.09594,-17.362 -9.40277,-9.4337 -17.92528,-18.29704 -18.9389,-19.69632 -4.85287,-6.69918 -5.72275,-17.15341 -2.05923,-24.74766 3.70448,-7.67915 11.23668,-13.32218 19.11996,-14.32443 5.57229,-0.70844 11.41868,0.20223 15.3294,2.3878 2.51049,1.40303 13.44333,11.93989 43.88017,42.29085 22.29515,22.23224 41.4478,41.78617 42.56144,43.45319 3.02773,4.53222 4.15585,9.09851 3.79806,15.37351 -0.54028,9.47577 1.10233,7.5084 -44.38717,53.16299 -22.05475,22.13479 -41.35806,41.17846 -42.89625,42.31927 -4.77955,3.54476 -11.38942,5.16216 -18.07227,4.42218 z"
   style="fill:#0893f7;fill-opacity:0;stroke:#000000;stroke-width:0.539556;stroke-dasharray:4.31645, 4.31645" /><path
   id="path854"
   d="m 406.14426,357.781 c -7.66786,-0.93209 -15.44923,-6.54079 -19.27691,-13.89451 -1.94887,-3.74417 -2.00842,-4.07199 -2.01354,-11.08649 -0.008,-10.88788 -0.0302,-10.85451 22.22055,-33.27548 l 18.07839,-18.21667 -149.95917,-0.0318 c -82.47754,-0.0175 -151.04341,-0.24586 -152.36859,-0.50742 -9.35843,-1.84715 -17.78219,-10.48861 -19.60768,-20.11442 -0.85003,-4.48218 -0.70339,-7.11089 0.63915,-11.45755 2.07196,-6.7082 7.00235,-12.74713 13.04631,-15.97958 4.7866,-2.55998 -8e-5,-2.48327 158.08522,-2.53331 82.45435,-0.0261 149.917,-0.14416 149.917,-0.26237 0,-0.1182 -7.54653,-7.76102 -16.77006,-16.98404 -9.22353,-9.22302 -17.73495,-18.04213 -18.91427,-19.59803 -7.06419,-9.31998 -6.00898,-23.528 2.38956,-32.17444 7.54496,-7.76767 20.66917,-9.9464 29.68066,-4.92725 2.49441,1.38932 13.59163,12.13104 44.91504,43.47614 48.23438,48.2678 45.13672,44.43929 45.13672,55.78622 0,11.23321 2.58459,8.01303 -43.92874,54.73142 -21.88908,21.98558 -41.3394,41.12815 -43.22294,42.53905 -4.79225,3.58972 -11.60795,5.29321 -18.0467,4.51053 z"
   style="fill:#0893f7;fill-opacity:0;stroke:#000000;stroke-width:0.539556;stroke-dasharray:4.31645, 4.31645" /><path
   id="path856"
   d="m 406.23205,357.80432 c -7.42656,-0.9383 -14.57109,-5.65038 -18.3542,-12.10528 -2.53115,-4.31875 -3.29583,-7.25195 -3.31577,-12.7188 -0.0213,-5.84969 0.92893,-9.4107 3.57433,-13.39429 1.28524,-1.93536 10.13126,-11.33864 19.65783,-20.89619 l 17.32105,-17.37735 -149.72455,-0.01 c -91.03914,-0.006 -150.8716,-0.23217 -152.65103,-0.57682 -4.56771,-0.8847 -9.01423,-3.37087 -12.54075,-7.01188 -3.99811,-4.12792 -6.30963,-8.83983 -7.1549,-14.58487 -0.55116,-3.74613 -0.48359,-5.04505 0.45436,-8.73412 1.83547,-7.21907 6.89789,-13.69501 13.44475,-17.19878 4.6745,-2.50172 0.40474,-2.43333 158.00559,-2.53072 l 149.98019,-0.0927 -2.00044,-2.1945 c -1.10025,-1.20697 -8.65274,-8.83544 -16.78332,-16.95215 -8.13058,-8.1167 -15.74719,-16.03065 -16.9258,-17.58655 -5.13603,-6.78013 -6.14958,-17.25951 -2.43542,-25.18051 6.08614,-12.97962 22.33468,-18.58096 34.50691,-11.89554 2.52791,1.38842 13.17092,11.6844 44.91504,43.4505 46.67961,46.71195 44.70827,44.38098 45.27967,53.53996 0.41957,6.7251 -0.49291,10.52964 -3.69358,15.40022 -3.36672,5.12327 -81.82516,83.50299 -85.89878,85.8126 -2.14003,1.21332 -11.3686,3.7493 -12.17225,3.34488 -0.0968,-0.0487 -1.66681,-0.27691 -3.48893,-0.50712 z"
   style="fill:#0893f7;fill-opacity:0;stroke:#000000;stroke-width:0.539556;stroke-dasharray:4.31645, 4.31645" /><path
   id="path858"
   d="m 406.23205,357.80432 c -7.42656,-0.9383 -14.57109,-5.65038 -18.3542,-12.10528 -2.53115,-4.31875 -3.29583,-7.25195 -3.31577,-12.7188 -0.0213,-5.82898 0.92746,-9.40848 3.53396,-13.33349 1.26303,-1.90193 9.92621,-11.15996 19.25151,-20.5734 9.3253,-9.41345 16.95509,-17.25224 16.95509,-17.41954 0,-0.1673 -67.21315,-0.32084 -149.36257,-0.3412 -89.09721,-0.0221 -150.52546,-0.26233 -152.2447,-0.59542 -9.32893,-1.80747 -17.63934,-10.36744 -19.47806,-20.06298 -0.85149,-4.48986 -0.68774,-7.54562 0.62949,-11.74746 2.79318,-8.90994 9.93638,-15.58873 18.77271,-17.5522 1.63136,-0.3625 58.91526,-0.63303 152.2996,-0.71926 l 149.68471,-0.13823 -1.50588,-1.72573 c -0.82824,-0.94915 -8.29551,-8.56064 -16.59394,-16.91441 -8.29842,-8.35378 -16.05355,-16.40845 -17.23361,-17.89927 -4.91717,-6.21207 -6.20004,-16.64077 -2.97642,-24.19603 5.9038,-13.83692 22.35662,-19.94847 34.99691,-12.99993 2.52587,1.38851 13.1965,11.71159 44.91504,43.45209 48.23438,48.2678 45.13672,44.43929 45.13672,55.78622 0,10.60314 0.19047,10.31962 -21.98186,32.72044 -36.48091,36.85685 -63.24881,63.28834 -66.12168,65.29068 -2.69158,1.87598 -10.48433,4.4897 -12.79058,4.29 -0.49694,-0.043 -2.39435,-0.26659 -4.21647,-0.4968 z"
   style="fill:#0893f7;fill-opacity:0;stroke:#000000;stroke-width:0.539556;stroke-dasharray:4.31645, 4.31645" /><path
   id="path860"
   d="m 405.93088,357.80398 c -7.54585,-1.06834 -14.34762,-5.76546 -18.40242,-12.70823 -2.2902,-3.92136 -2.50533,-4.67055 -2.80748,-9.77714 -0.42669,-7.21139 0.45126,-11.26905 3.39853,-15.70719 1.28613,-1.93672 9.95347,-11.21283 19.26077,-20.61359 9.3073,-9.40076 16.92236,-17.19504 16.92236,-17.32063 0,-0.12558 -67.26023,-0.27625 -149.46718,-0.33481 -87.80015,-0.0626 -150.67095,-0.33477 -152.38485,-0.6598 -5.54776,-1.05212 -10.51123,-4.26203 -14.24127,-9.20996 -8.982196,-11.91495 -6.58334,-27.55154 5.55567,-36.21375 6.81054,-4.8599 -6.57362,-4.47202 161.17803,-4.67103 l 149.70864,-0.1776 -1.68041,-1.41397 c -0.92421,-0.77768 -1.68039,-1.62513 -1.68039,-1.88322 0,-0.25809 -6.7282,-7.21376 -14.95156,-15.45704 -8.22336,-8.24328 -15.94066,-16.22585 -17.14955,-17.73905 -4.82109,-6.03462 -6.09466,-16.65811 -2.8958,-24.15535 6.54154,-15.33159 25.02958,-20.71835 38.00867,-11.07438 1.15953,0.86158 20.08348,19.51788 42.05324,41.45845 32.6462,32.60286 40.40561,40.66008 42.46588,44.09577 l 2.52088,4.20381 -0.0113,7.54207 c -0.0112,7.4655 -0.0322,7.57876 -2.06636,11.15619 -1.46239,2.57184 -6.58366,8.19988 -17.75811,19.51538 -31.74304,32.14371 -65.41334,65.36273 -68.26589,67.35089 -1.73245,1.2075 -4.76441,2.51945 -7.41051,3.20659 -4.74365,1.23184 -5.17025,1.25716 -9.89959,0.58759 z"
   style="fill:#0893f7;fill-opacity:0;stroke:#000000;stroke-width:0.54;stroke-dasharray:4.32,4.32;stroke-miterlimit:4;stroke-dashoffset:0" /><path
   id="path862"
   d="m 51.54128,210.22118 c 0,-0.82824 0.136718,-1.16706 0.303818,-0.75294 0.1671,0.41411 0.1671,1.09176 0,1.50588 -0.1671,0.41412 -0.303818,0.0753 -0.303818,-0.75294 z"
   style="fill:#0893f7;fill-opacity:0;stroke:#000000;stroke-width:0.539556;stroke-dasharray:4.31645, 4.31645" /><path
   id="path864"
   d="m 63.49323,484.32376 c -3.147294,-0.5687 -7.019355,-1.48619 -8.60458,-2.03887 -1.585225,-0.55269 -3.14309,-1.00489 -3.461922,-1.00489 -0.318832,0 -2.300787,-0.81318 -4.404342,-1.80706 -2.103556,-0.99388 -3.980221,-1.80706 -4.170368,-1.80706 -0.430623,0 -10.268534,-6.05967 -10.681141,-6.57907 -0.165647,-0.20851 -1.50926,-1.32025 -2.985806,-2.47052 C 15.02762,457.58721 4.7189574,439.9742 1.6946002,421.64706 0.82107244,416.35362 0.54697299,368.2602 0.64581911,237.62824 0.73727056,116.76896 0.8788158,95.904907 1.6388296,91.256471 2.6074429,85.33219 4.3263651,78.353662 5.0513185,77.402353 5.3037843,77.071059 5.8572207,75.715765 6.2811778,74.390588 7.0836951,71.882131 12.144511,61.965779 12.890517,61.44 c 0.23503,-0.165647 1.189851,-1.520941 2.121826,-3.011765 5.262252,-8.417708 16.766243,-18.254842 27.794565,-23.767302 10.287825,-5.142327 15.88668,-6.761766 25.806322,-7.464339 12.418235,-0.879541 184.36044,-0.931591 195.39012,-0.05915 6.50291,0.514377 10.01245,1.119517 14.08617,2.428838 2.98401,0.959079 5.72763,1.974699 6.09694,2.256932 0.36931,0.282234 1.85677,0.973774 3.30547,1.536758 6.72426,2.613137 14.57498,8.258517 22.19446,15.959834 5.54985,5.609464 12.8186,15.106853 12.8186,16.748854 0,0.346528 0.49233,1.276487 1.09406,2.066577 1.49764,1.96644 4.67344,10.181574 6.11515,15.8186 1.8394,7.191986 2.40412,19.447053 2.2101,47.961453 -0.19867,29.19635 -0.2177,29.3502 -4.37678,35.38901 -10.62093,15.42112 -32.77111,14.22231 -42.09787,-2.27842 -1.12661,-1.99318 -2.19977,-4.49845 -2.38479,-5.56727 -0.441,-2.54759 -0.84101,-22.10851 -0.91761,-44.87264 -0.0608,-18.087656 -0.0731,-18.256237 -1.5365,-21.16983 -0.81134,-1.615336 -1.47517,-3.226522 -1.47517,-3.580404 0,-0.353883 -1.63704,-2.393425 -3.63787,-4.532321 -3.29028,-3.517326 -4.69761,-4.524325 -10.46013,-7.484661 -2.76926,-1.422639 -21.24607,-1.7081 -98.542,-1.522443 -83.636227,0.200887 -95.78312,0.389656 -99.10712,1.540175 -3.195163,1.105923 -8.608232,5.144006 -10.820469,8.071935 -0.970865,1.284955 -2.090394,2.671005 -2.487841,3.080105 -0.397447,0.4091 -1.257229,2.442042 -1.910629,4.517647 -1.17094,3.719638 -1.186701,6.070266 -1.097577,163.698537 l 0.09042,159.9247 2.61737,4.5737 c 2.998079,5.23896 6.491996,8.52085 12.418577,11.66496 l 4.084049,2.16663 96.14426,-0.18976 c 89.21425,-0.17608 96.36321,-0.26475 99.18198,-1.23024 2.85634,-0.97836 4.44166,-2.11521 9.14993,-6.56152 2.9325,-2.76935 5.93398,-8.66322 6.68874,-13.13436 0.38244,-2.26557 0.77944,-15.97092 0.9422,-32.52706 l 0.28127,-28.61176 1.48514,-3.72525 c 0.81683,-2.04889 2.0827,-4.35289 2.81304,-5.12 0.73035,-0.76711 1.73546,-2.00177 2.23357,-2.74368 1.75124,-2.60838 8.03071,-6.20517 12.83782,-7.35331 4.14225,-0.98935 4.99974,-1.01365 9.01036,-0.25529 6.66578,1.26041 10.27995,3.29859 14.47903,8.16533 1.98065,2.29557 3.60118,4.43519 3.60118,4.75472 0,0.31953 0.63723,1.59161 1.41606,2.82687 l 1.41606,2.2459 -0.0843,33.43059 c -0.0916,36.34613 -0.0756,36.14381 -3.76866,47.58588 -5.16016,15.98757 -16.71187,31.11359 -30.6027,40.07176 -4.43658,2.86114 -11.81312,6.64785 -14.02316,7.19873 -0.90091,0.22456 -2.4512,0.7739 -3.44508,1.22073 -0.99388,0.44685 -4.11106,1.43921 -6.92706,2.20526 l -5.12,1.39281 -99.38823,0.0883 c -91.530165,0.0814 -99.840672,0.007 -105.110592,-0.94564 z"
   style="fill:#0893f7;fill-opacity:0;stroke:#000000;stroke-width:0.539556;stroke-dasharray:4.31645, 4.31645" /></svg>
