<?xml version="1.0" encoding="UTF-8" standalone="no"?>
<svg
   xmlns:dc="http://purl.org/dc/elements/1.1/"
   xmlns:cc="http://creativecommons.org/ns#"
   xmlns:rdf="http://www.w3.org/1999/02/22-rdf-syntax-ns#"
   xmlns:svg="http://www.w3.org/2000/svg"
   xmlns="http://www.w3.org/2000/svg"
   xmlns:sodipodi="http://sodipodi.sourceforge.net/DTD/sodipodi-0.dtd"
   xmlns:inkscape="http://www.inkscape.org/namespaces/inkscape"
   inkscape:version="1.0 (4035a4fb49, 2020-05-01)"
   sodipodi:docname="plus.svg"
   id="svg10"
   xml:space="preserve"
   enable-background="new 0 0 1000 1000"
   viewBox="0 0 1000 1000"
   y="0px"
   x="0px"
   version="1.1"><defs
   id="defs14" /><sodipodi:namedview
   inkscape:current-layer="svg10"
   inkscape:window-maximized="1"
   inkscape:window-y="165"
   inkscape:window-x="-8"
   inkscape:cy="500"
   inkscape:cx="204.60358"
   inkscape:zoom="0.65166667"
   showgrid="false"
   id="namedview12"
   inkscape:window-height="837"
   inkscape:window-width="1440"
   inkscape:pageshadow="2"
   inkscape:pageopacity="0"
   guidetolerance="10"
   gridtolerance="10"
   objecttolerance="10"
   borderopacity="1"
   bordercolor="#666666"
   pagecolor="#ffffff" />
<metadata
   id="metadata2"> Svg Vector Icons : http://www.onlinewebfonts.com/icon <rdf:RDF><cc:Work
     rdf:about=""><dc:format>image/svg+xml</dc:format><dc:type
       rdf:resource="http://purl.org/dc/dcmitype/StillImage" /></cc:Work></rdf:RDF></metadata>
<g
   style="fill:#ffffff;fill-opacity:1"
   id="g8"><g
     style="fill:#ffffff;fill-opacity:1"
     id="g6"><path
       style="fill:#ffffff;fill-opacity:1"
       id="path4"
       d="M500,10c13.5,0,25.1,4.8,34.6,14.4C544.2,33.9,549,45.5,549,59v392h392c13.5,0,25.1,4.8,34.6,14.4S990,486.5,990,500s-4.8,25.1-14.4,34.6c-9.6,9.6-21.1,14.4-34.6,14.4H549v392c0,13.5-4.8,25.1-14.4,34.6c-9.6,9.6-21.1,14.4-34.6,14.4s-25.1-4.8-34.6-14.4S451,954.5,451,941V549H59c-13.5,0-25.1-4.8-34.6-14.4C14.8,525.1,10,513.5,10,500s4.8-25.1,14.4-34.6S45.5,451,59,451h392V59c0-13.5,4.8-25.1,14.4-34.6S486.5,10,500,10z" /></g></g>
</svg>
