<?xml version="1.0" encoding="utf-8"?>
<!-- Svg Vector Icons : http://www.onlinewebfonts.com/icon -->
<!DOCTYPE svg PUBLIC "-//W3C//DTD SVG 1.1//EN" "http://www.w3.org/Graphics/SVG/1.1/DTD/svg11.dtd">
<svg version="1.1" xmlns="http://www.w3.org/2000/svg" xmlns:xlink="http://www.w3.org/1999/xlink" x="0px" y="0px" viewBox="0 0 1000 1000" enable-background="new 0 0 1000 1000" xml:space="preserve">
<metadata> Svg Vector Icons : http://www.onlinewebfonts.com/icon </metadata>
<g><path d="M585.7,280.6H273.1v0v0H148.8l125.9-125.5c6.5-6.9,9.7-14.8,9.7-24c0-9.5-3.1-17-9.8-23.7c-6.6-6.6-14.4-9.8-23.7-9.8c-9.6,0-17.4,3.1-23.8,9.6l-183,183c-6.5,6.5-9.6,14.3-9.6,23.9v0.2c0,9.5,3.2,17.3,9.6,23.8L227,520.9c6.9,6.6,14.8,9.7,24,9.7c9.3,0,17-3.2,23.6-9.7l0.1-0.1l0.2-0.2c6.5-6.5,9.7-14.2,9.7-23.5c0-9.2-3.2-17-9.7-24L148.8,347.6h124.3v0h0.7h312.6l0,0v0l0,0h31c9.3,0,17.1-3.2,23.7-9.8c6.6-6.6,9.8-14.4,9.8-23.7c0-9.3-3.2-17.1-9.8-23.7c-6.6-6.6-14.4-9.8-23.7-9.8h-31v0L585.7,280.6L585.7,280.6z"/><path d="M148.8,347.6l125.9,125.5c6.5,6.9,9.7,14.8,9.7,24c0,9.3-3.2,17-9.7,23.5l-0.2,0.2l-0.1,0.1c-6.5,6.5-14.3,9.7-23.6,9.7c-9.2,0-17-3.2-24-9.7L44.1,338c-6.5-6.5-9.6-14.3-9.6-23.8V314c0-9.6,3.2-17.4,9.6-23.9l183-183c6.5-6.5,14.3-9.6,23.8-9.6c9.4,0,17.1,3.2,23.7,9.8c6.7,6.7,9.8,14.2,9.8,23.7c0,9.2-3.2,17.1-9.7,24L148.8,280.6h124.3v-24.5h-65l84.1-83.8l0.1-0.1l0.1-0.1c11-11.5,16.6-25.3,16.6-41c0-16-5.7-29.8-17-41c-11.3-11.3-25.1-17-41-17c-16.2,0-30,5.6-41.2,16.8l-183,183C15.6,284,10,297.9,10,314l0,0.1c0,16.2,5.6,30,16.8,41.2l183,183l0.2,0.2c11.6,11,25.3,16.6,40.9,16.6c15.9,0,29.7-5.7,40.9-16.9l0.1-0.1l0.2-0.2c11.2-11.2,16.8-24.9,16.8-40.8c0-15.6-5.6-29.4-16.6-41l-0.1-0.1l-84.2-83.9h65v-24.5L148.8,347.6L148.8,347.6z"/><path d="M658.5,273c-11.3-11.3-25.1-17-41-17h-31v24.5l0,0h31c9.3,0,17.1,3.2,23.7,9.8c6.6,6.7,9.9,14.4,9.9,23.7c0,9.3-3.2,17.1-9.8,23.7c-6.6,6.6-14.4,9.8-23.7,9.8h-31v24.5l0,0h31c15.9,0,29.7-5.7,41-17c11.3-11.3,17-25.1,17-41C675.5,298.2,669.8,284.4,658.5,273z"/><path d="M273.1,280.6L273.1,280.6l312.5,0h0.8v0l0,0v-24.5l0,0v0v0H273.8h-0.7v0V280.6L273.1,280.6z"/><path d="M586.5,347.6L586.5,347.6L586.5,347.6L586.5,347.6l-312.6,0h-0.7v0v24.5v0v0h312.5h0.8v0l0,0V347.6z"/><path d="M414.3,719.4h312.5v0v0h124.3L725.2,844.9c-6.5,6.9-9.7,14.8-9.7,24c0,9.5,3.1,17,9.8,23.7c6.6,6.6,14.4,9.8,23.7,9.8c9.6,0,17.4-3.1,23.8-9.6l183-183c6.5-6.5,9.6-14.3,9.6-23.9v-0.2c0-9.5-3.2-17.3-9.6-23.8L773,479.1c-6.9-6.6-14.8-9.7-24-9.7c-9.3,0-17,3.2-23.6,9.7l-0.1,0.1l-0.2,0.2c-6.5,6.5-9.7,14.2-9.7,23.5c0,9.2,3.2,17,9.7,24l125.9,125.5H726.9v0h-0.7H413.5v0v0l0,0h-31c-9.3,0-17.1,3.2-23.7,9.8c-6.6,6.6-9.8,14.4-9.8,23.7c0,9.3,3.2,17.1,9.9,23.7c6.6,6.6,14.4,9.8,23.7,9.8h31v0L414.3,719.4L414.3,719.4z"/><path d="M851.2,652.4L725.2,526.9c-6.5-6.9-9.7-14.8-9.7-24c0-9.3,3.2-17,9.7-23.5l0.2-0.2l0.1-0.1c6.5-6.5,14.3-9.7,23.6-9.7c9.2,0,17,3.2,24,9.7L955.9,662c6.5,6.5,9.6,14.3,9.6,23.8v0.2c0,9.6-3.2,17.4-9.6,23.9l-183,183c-6.5,6.5-14.3,9.6-23.8,9.6c-9.4,0-17.1-3.2-23.7-9.8c-6.7-6.7-9.8-14.2-9.8-23.7c0-9.2,3.2-17.1,9.7-24l125.9-125.5H726.9v24.5h65l-84.1,83.8l-0.1,0.1l-0.1,0.1c-11,11.5-16.6,25.3-16.6,41c0,16,5.7,29.8,17,41c11.3,11.3,25.1,17,41,17c16.2,0,30-5.7,41.2-16.8l183-183c11.1-11.2,16.8-25,16.8-41.2l0-0.1c0-16.2-5.6-30-16.8-41.2l-183-183l-0.2-0.2c-11.6-11-25.3-16.6-40.9-16.6c-15.9,0-29.7,5.7-40.9,16.9l-0.1,0.1l-0.2,0.2C696.7,473.2,691,487,691,502.9c0,15.6,5.6,29.4,16.6,41l0.1,0.1l84.2,83.9h-65v24.5L851.2,652.4L851.2,652.4z"/><path d="M341.5,727c11.3,11.3,25.1,17,41,17h31v-24.5v0h-31c-9.3,0-17.1-3.2-23.7-9.8c-6.6-6.7-9.9-14.4-9.9-23.7c0-9.3,3.2-17.1,9.8-23.7c6.6-6.6,14.4-9.8,23.7-9.8h31v-24.5v0h-31c-15.9,0-29.7,5.7-41,17c-11.3,11.3-17,25.1-17,41C324.5,701.8,330.2,715.6,341.5,727z"/><path d="M726.9,719.4L726.9,719.4l-312.5,0h-0.8v0l0,0v24.5l0,0v0v0h312.6h0.7v0V719.4L726.9,719.4z"/><path d="M413.5,652.4L413.5,652.4L413.5,652.4L413.5,652.4l312.6,0h0.7v0v-24.5v0v0H414.3h-0.8v0l0,0V652.4z"/></g>
</svg>